# xmcd CD database file
#
# Track frame offsets:
#	150
#	18650
#	35436
#	55982
#	70552
#	85860
#	101875
#	121145
#	137931
#
# Disc length: 1950 seconds
#
# Revision: 0
# Processed by: cddbd v1.5.2PL0 Copyright (c) Steve Scherf et al.
# Submitted via: jetAudio 7
#
DISCID=78079c09
DTITLE=منار  - سورية مشتافة
DYEAR=1900
DGENRE=ترانيم
TTITLE0=بلادي مشتاقة 
TTITLE1=كلمة صغيرة
TTITLE2=سوريا عم تنادي
TTITLE3=يا ارض جدودي
TTITLE4=اتطلع فينا وارحمنا
TTITLE5=ع بواب الشام
TTITLE6=يا مزين سما
TTITLE7=love you
TTITLE8=لو..
EXTD=
EXTT0=
EXTT1=
EXTT2=
EXTT3=
EXTT4=
EXTT5=
EXTT6=
EXTT7=
EXTT8=
PLAYORDER=
